<svg width="360" height="177" viewBox="0 0 360 177" fill="none" xmlns="http://www.w3.org/2000/svg">
<path d="M-5.00002 15.6465C6.53933 70.9825 173.938 49.01 237 86.6465" stroke="#EFEEEA" stroke-width="10"/>
<line x1="231.419" y1="83.7147" x2="247.93" y2="95.0027" stroke="#EFEEEA" stroke-width="20"/>
<path d="M245.387 94.7387C255.341 78.8848 276.262 74.1016 292.116 84.055L326.987 105.948L290.942 163.36L256.071 141.467C240.217 131.513 235.434 110.593 245.387 94.7387Z" fill="#EFEEEA"/>
<rect x="322.053" y="99.6704" width="11.7669" height="73.1462" rx="4" transform="rotate(32.1217 322.053 99.6704)" fill="#EFEEEA"/>
<path d="M315.582 113.241L355.538 136.659C357.894 138.04 358.579 141.004 357.07 143.279C355.56 145.554 352.427 146.279 350.072 144.899L310.116 121.48L315.582 113.241Z" fill="#EFEEEA"/>
<path d="M297.984 142.542L338.01 165.691C340.373 167.058 341.076 170.017 339.58 172.301C338.083 174.585 334.954 175.328 332.59 173.961L292.564 150.812L297.984 142.542Z" fill="#EFEEEA"/>
</svg>
